# xmcd
# 
# Track frame offsets:
#     182
#     19802
#     39557
#     57042
# 
# Disc length: 1287
# 
# Revision: 12
# Processed by: cddbd v1.5.2PL0 Copyright (c) Steve Scherf et al.
# Submitted via: fre:ac v1.0.31
# 
DISCID=29050504
DTITLE=The Cure / Fascination Street (Single)
DYEAR=1989
DGENRE=Rock
TTITLE0=Fascination Street (Remix)
TTITLE1=Babble
TTITLE2=Out Of Mind
TTITLE3=Fascination Street (Extended Remix)
EXTD=
EXTT0=
EXTT1=
EXTT2=
EXTT3=
PLAYORDER=
.
